<?xml version="1.0" encoding="UTF-8" standalone="no"?>
<!-- Created with Inkscape (http://www.inkscape.org/) -->

<svg
   xmlns:dc="http://purl.org/dc/elements/1.1/"
   xmlns:cc="http://creativecommons.org/ns#"
   xmlns:rdf="http://www.w3.org/1999/02/22-rdf-syntax-ns#"
   xmlns:svg="http://www.w3.org/2000/svg"
   xmlns="http://www.w3.org/2000/svg"
   xmlns:sodipodi="http://sodipodi.sourceforge.net/DTD/sodipodi-0.dtd"
   xmlns:inkscape="http://www.inkscape.org/namespaces/inkscape"
   width="210mm"
   height="297mm"
   id="svg57284"
   version="1.1"
   inkscape:version="0.48+devel r"
   viewBox="0 0 744.09447 1052.3622"
   sodipodi:docname="esc.svg"
   inkscape:export-filename="/home/lgarciag/turno/esc.png"
   inkscape:export-xdpi="128.56429"
   inkscape:export-ydpi="128.56429">
  <defs
     id="defs57286">
    <clipPath
       clipPathUnits="userSpaceOnUse"
       id="clipPath30524">
      <path
         d="m 320.641,7981.02 c 32.714,-1.55 65.429,-4.63 98.144,-4.63 32.715,0 64.91,2.06 98.145,4.63 6.961,0 12.66,-5.7 12.66,-12.66 0,-65.43 0,-130.86 0,-196.3 0,-6.96 -5.699,-12.66 -12.66,-12.66 -32.715,-3.6 -65.43,-6.68 -98.145,-6.68 -32.715,0 -65.949,4.11 -98.144,6.68 -6.969,0 -12.668,5.7 -12.668,12.66 0,65.44 0,130.87 0,196.3 0,6.96 5.699,12.66 12.668,12.66 l 0,0"
         id="path30526"
         inkscape:connector-curvature="0"
         style="clip-rule:evenodd" />
    </clipPath>
    <linearGradient
       x1="0.13"
       y1="0"
       x2="0.87"
       y2="0"
       gradientUnits="userSpaceOnUse"
       gradientTransform="matrix(246.888,-166.528,-175.066,-259.546,384.423,8082.2)"
       spreadMethod="pad"
       id="linearGradient30528">
      <stop
         style="stop-opacity:1;stop-color:#231f20"
         offset="0"
         id="stop30530" />
      <stop
         style="stop-opacity:1;stop-color:#4f4c4d"
         offset="0.4704"
         id="stop30532" />
      <stop
         style="stop-opacity:1;stop-color:#656363"
         offset="0.6258"
         id="stop30534" />
      <stop
         style="stop-opacity:1;stop-color:#7b7979"
         offset="1"
         id="stop30536" />
    </linearGradient>
    <clipPath
       clipPathUnits="userSpaceOnUse"
       id="clipPath30504">
      <path
         d="m 336.883,7758.01 -46.274,-49.87 -11.621,0 c -10.41,0 -18.929,8.52 -18.929,18.94 l 0,24.35 47.914,44.94 0,-24.31 c 0,-6.96 5.699,-12.66 12.668,-12.66 5.386,-0.43 10.804,-0.9 16.242,-1.39 l 0,0"
         id="path30506"
         inkscape:connector-curvature="0"
         style="clip-rule:evenodd" />
    </clipPath>
    <linearGradient
       x1="0.090000004"
       y1="0"
       x2="0.91000003"
       y2="0"
       gradientUnits="userSpaceOnUse"
       gradientTransform="matrix(62.5086,-62.5086,-72.1438,-72.1438,298.193,7814.49)"
       spreadMethod="pad"
       id="linearGradient30508">
      <stop
         style="stop-opacity:1;stop-color:#7b7979"
         offset="0"
         id="stop30510" />
      <stop
         style="stop-opacity:1;stop-color:#7b7979"
         offset="0.336"
         id="stop30512" />
      <stop
         style="stop-opacity:1;stop-color:#393536"
         offset="0.664"
         id="stop30514" />
      <stop
         style="stop-opacity:1;stop-color:#393536"
         offset="1"
         id="stop30516" />
    </linearGradient>
    <clipPath
       clipPathUnits="userSpaceOnUse"
       id="clipPath30484">
      <path
         d="m 501.109,7757.71 45.844,-49.57 11.625,0 c 10.406,0 18.926,8.52 18.926,18.93 l 0,24.36 -47.914,45.29 0,-24.66 0,0 -0.004,-0.32 0,0 -0.012,-0.33 0,0 -0.019,-0.32 -0.004,0 -0.024,-0.32 -0.004,0 -0.035,-0.32 0,0 -0.043,-0.31 0,0 -0.054,-0.32 0,0 -0.059,-0.3 0,0 -0.07,-0.31 0,0 -0.071,-0.3 0,0 -0.086,-0.3 0,0 -0.085,-0.31 0,0 -0.098,-0.29 0,0 -0.102,-0.29 0,0 -0.113,-0.29 0,0 -0.113,-0.28 -0.004,0 -0.125,-0.28 0,0 -0.129,-0.28 0,0 -0.137,-0.28 0,0 -0.144,-0.27 -0.004,0 -0.145,-0.26 0,0 -0.156,-0.27 0,0 -0.164,-0.26 0,0 -0.168,-0.25 0,0 -0.176,-0.25 0,0 -0.176,-0.25 0,0 -0.187,-0.24 0,0 -0.188,-0.24 0,0 -0.203,-0.23 0,0 -0.199,-0.23 0,0 -0.211,-0.22 0,0 c -0.066,-0.07 -0.137,-0.14 -0.207,-0.22 l 0,0 -0.215,-0.21 0,0 -0.226,-0.21 0,0 -0.231,-0.2 0,0 -0.23,-0.2 0,0 -0.239,-0.19 0,0 -0.238,-0.18 -0.004,0 -0.246,-0.18 0,0 -0.246,-0.18 0,0 -0.254,-0.16 0,0 -0.262,-0.17 -0.003,0 -0.258,-0.16 -0.008,0 -0.262,-0.14 0,0 -0.269,-0.15 -0.004,0 -0.274,-0.13 0,0 -0.277,-0.13 0,0 -0.281,-0.13 0,0 -0.285,-0.11 0,0 -0.289,-0.11 0,0 -0.293,-0.11 0,0 -0.293,-0.1 -0.004,0 -0.301,-0.09 0,0 -0.297,-0.08 0,0 -0.305,-0.07 0,0 -0.304,-0.07 -0.004,0 -0.309,-0.06 0,0 -0.312,-0.05 0,0 -0.317,-0.05 0,0 -0.312,-0.03 0,0 -0.324,-0.03 0,0 -0.321,-0.02 0,0 -0.324,-0.01 0,0 -0.32,-0.01 c -5.266,-0.58 -10.563,-1.15 -15.821,-1.69 l 0,0"
         id="path30486"
         inkscape:connector-curvature="0"
         style="clip-rule:evenodd" />
    </clipPath>
    <linearGradient
       x1="0.090000004"
       y1="0"
       x2="0.91000003"
       y2="0"
       gradientUnits="userSpaceOnUse"
       gradientTransform="matrix(-62.6856,-62.6856,-72.322,72.322,611.802,7742.62)"
       spreadMethod="pad"
       id="linearGradient30488">
      <stop
         style="stop-opacity:1;stop-color:#231f20"
         offset="0"
         id="stop30490" />
      <stop
         style="stop-opacity:1;stop-color:#231f20"
         offset="0.336"
         id="stop30492" />
      <stop
         style="stop-opacity:1;stop-color:#4f4c4d"
         offset="0.664"
         id="stop30494" />
      <stop
         style="stop-opacity:1;stop-color:#4f4c4d"
         offset="1"
         id="stop30496" />
    </linearGradient>
    <clipPath
       clipPathUnits="userSpaceOnUse"
       id="clipPath30464">
      <path
         d="m 500.641,7979.8 46.386,45.79 11.551,0 c 10.406,0 18.926,-8.51 18.926,-18.93 l 0,-23.83 -47.914,-41.15 0,26.68 0,0 -0.004,0.32 0,0 -0.012,0.32 0,0 -0.019,0.33 -0.004,0 -0.024,0.32 -0.004,0 -0.035,0.31 0,0 -0.043,0.32 0,0 -0.054,0.31 0,0 -0.059,0.31 0,0 -0.07,0.31 0,0 -0.071,0.31 0,0 -0.086,0.29 0,0 -0.085,0.3 0,0 -0.098,0.3 0,0 -0.102,0.29 0,0 -0.113,0.29 0,0 -0.117,0.28 0,0 -0.125,0.28 0,0 -0.129,0.28 0,0 -0.137,0.28 0,0 -0.144,0.27 0,0 -0.149,0.26 0,0 -0.156,0.27 0,0 -0.164,0.26 -0.004,0 -0.16,0.25 -0.004,0 -0.172,0.26 -0.004,0 -0.176,0.24 0,0 -0.187,0.24 0,0 -0.188,0.24 0,0 -0.203,0.23 0,0 -0.199,0.23 0,0 -0.211,0.22 0,0 -0.203,0.22 -0.004,0 -0.215,0.21 0,0 -0.226,0.2 0,0 -0.231,0.21 0,0 -0.23,0.2 0,0 -0.239,0.18 0,0 -0.238,0.19 0,0 -0.25,0.18 0,0 -0.246,0.18 0,0 -0.254,0.17 0,0 -0.262,0.16 -0.003,0 -0.258,0.15 0,0 -0.27,0.15 0,0 -0.269,0.14 -0.004,0 -0.274,0.14 0,0 -0.277,0.13 0,0 -0.281,0.13 0,0 -0.285,0.11 0,0 -0.289,0.11 0,0 -0.293,0.11 0,0 -0.293,0.1 0,0 -0.297,0.09 -0.008,0 -0.297,0.08 -0.004,0 -0.297,0.08 -0.004,0 -0.304,0.06 -0.004,0 -0.309,0.06 0,0 -0.312,0.05 0,0 -0.313,0.04 0,0 -0.316,0.04 0,0 -0.324,0.03 0,0 -0.317,0.02 -0.004,0 -0.324,0.02 0,0 -0.32,0 0,0 c -0.418,-0.02 -0.836,-0.06 -1.258,-0.1 -5.031,-0.38 -10.043,-0.76 -15.031,-1.12 l 0,0"
         id="path30466"
         inkscape:connector-curvature="0"
         style="clip-rule:evenodd" />
    </clipPath>
    <linearGradient
       x1="0.0099999998"
       y1="0"
       x2="0.99000001"
       y2="0"
       gradientUnits="userSpaceOnUse"
       gradientTransform="matrix(-60.3556,60.3556,69.9929,69.9929,539.365,7923.57)"
       spreadMethod="pad"
       id="linearGradient30468">
      <stop
         style="stop-opacity:1;stop-color:#231f20"
         offset="0"
         id="stop30470" />
      <stop
         style="stop-opacity:1;stop-color:#231f20"
         offset="0.304"
         id="stop30472" />
      <stop
         style="stop-opacity:1;stop-color:#4f4c4d"
         offset="0.696"
         id="stop30474" />
      <stop
         style="stop-opacity:1;stop-color:#4f4c4d"
         offset="1"
         id="stop30476" />
    </linearGradient>
    <clipPath
       clipPathUnits="userSpaceOnUse"
       id="clipPath30444">
      <path
         d="m 336.535,7980.16 -45.996,45.43 -11.555,0 c -10.406,0 -18.925,-8.51 -18.925,-18.93 l 0,-23.83 47.914,-41.25 0,26.78 c 0,6.96 5.699,12.66 12.66,12.66 5.305,-0.25 10.601,-0.54 15.902,-0.86 l 0,0"
         id="path30446"
         inkscape:connector-curvature="0"
         style="clip-rule:evenodd" />
    </clipPath>
    <linearGradient
       x1="0.02"
       y1="0"
       x2="0.98000002"
       y2="0"
       gradientUnits="userSpaceOnUse"
       gradientTransform="matrix(60.4055,60.4055,70.0417,-70.0417,228.061,7993.41)"
       spreadMethod="pad"
       id="linearGradient30448">
      <stop
         style="stop-opacity:1;stop-color:#7b7979"
         offset="0"
         id="stop30450" />
      <stop
         style="stop-opacity:1;stop-color:#7b7979"
         offset="0.308"
         id="stop30452" />
      <stop
         style="stop-opacity:1;stop-color:#393536"
         offset="0.692"
         id="stop30454" />
      <stop
         style="stop-opacity:1;stop-color:#393536"
         offset="1"
         id="stop30456" />
    </linearGradient>
    <clipPath
       clipPathUnits="userSpaceOnUse"
       id="clipPath30428">
      <path
         d="m 547.027,8025.59 -46.465,-45.79 -0.031,0 c -27.488,-1.97 -54.441,-3.41 -81.746,-3.41 -27.379,0 -54.75,2.16 -82.125,3.77 l -46.121,45.43 256.488,0 0,0"
         id="path30430"
         inkscape:connector-curvature="0"
         style="clip-rule:evenodd" />
    </clipPath>
    <linearGradient
       x1="0.2"
       y1="0"
       x2="0.80000001"
       y2="0"
       gradientUnits="userSpaceOnUse"
       gradientTransform="matrix(256.49,0,0,-60.9869,290.532,8031.48)"
       spreadMethod="pad"
       id="linearGradient30432">
      <stop
         style="stop-opacity:1;stop-color:#393637"
         offset="0"
         id="stop30434" />
      <stop
         style="stop-opacity:1;stop-color:#4f4c4d"
         offset="1"
         id="stop30436" />
    </linearGradient>
    <clipPath
       clipPathUnits="userSpaceOnUse"
       id="clipPath30410">
      <path
         d="m 501.105,7757.71 0.004,0 45.844,-49.57 -256.344,0 46.27,49.87 c 27.066,-2.44 54.664,-5.29 81.906,-5.29 27.434,0 54.879,2.17 82.32,4.99 l 0,0"
         id="path30412"
         inkscape:connector-curvature="0"
         style="clip-rule:evenodd" />
    </clipPath>
    <linearGradient
       x1="0.2"
       y1="0"
       x2="0.80000001"
       y2="0"
       gradientUnits="userSpaceOnUse"
       gradientTransform="matrix(256.344,0,0,-61.651,290.605,7763.9)"
       spreadMethod="pad"
       id="linearGradient30414">
      <stop
         style="stop-opacity:1;stop-color:#393637"
         offset="0"
         id="stop30416" />
      <stop
         style="stop-opacity:1;stop-color:#4f4c4d"
         offset="1"
         id="stop30418" />
    </linearGradient>
  </defs>
  <sodipodi:namedview
     id="base"
     pagecolor="#ffffff"
     bordercolor="#666666"
     borderopacity="1.0"
     inkscape:pageopacity="0.0"
     inkscape:pageshadow="2"
     inkscape:zoom="5.6"
     inkscape:cx="459.70536"
     inkscape:cy="520"
     inkscape:document-units="px"
     inkscape:current-layer="layer1"
     showgrid="false"
     inkscape:window-width="1260"
     inkscape:window-height="787"
     inkscape:window-x="210"
     inkscape:window-y="141"
     inkscape:window-maximized="0" />
  <metadata
     id="metadata57289">
    <rdf:RDF>
      <cc:Work
         rdf:about="">
        <dc:format>image/svg+xml</dc:format>
        <dc:type
           rdf:resource="http://purl.org/dc/dcmitype/StillImage" />
        <dc:title></dc:title>
      </cc:Work>
    </rdf:RDF>
  </metadata>
  <g
     inkscape:label="Capa 1"
     inkscape:groupmode="layer"
     id="layer1">
    <path
       inkscape:connector-curvature="0"
       id="path30402"
       style="fill:#231f20;fill-opacity:1;fill-rule:evenodd;stroke:none"
       d="m 450.6395,484.24665 41.57813,0 c 1.00187,0 1.82175,0.8225 1.82175,1.8225 l 0,41.1575 c 0,0.99875 -0.82275,1.8225 -1.82175,1.8225 l -41.57813,0 c -0.999,0 -1.82175,-0.82125 -1.82175,-1.8225 l 0,-41.1575 c 0,-1.0025 0.81975,-1.8225 1.82175,-1.8225 l 0,0" />
    <path
       inkscape:connector-curvature="0"
       id="path30404"
       style="fill:#231f20;fill-opacity:1;fill-rule:evenodd;stroke:none"
       d="m 485.27963,515.42665 0,-18.1225 5.98925,-5.14125 0,28.925 -5.98925,-5.66125 0,0" />
    <g
       id="g30406"
       transform="matrix(0.125,0,0,-0.125,419.08088,1490.0167)">
      <g
         clip-path="url(#clipPath30410)"
         id="g30408">
        <path
           inkscape:connector-curvature="0"
           id="path30420"
           style="fill:url(#linearGradient30414);fill-opacity:1;fill-rule:nonzero;stroke:none"
           d="m 501.105,7757.71 0.004,0 45.844,-49.57 -256.344,0 46.27,49.87 c 27.066,-2.44 54.664,-5.29 81.906,-5.29 27.434,0 54.879,2.17 82.32,4.99 l 0,0" />
      </g>
    </g>
    <path
       inkscape:connector-curvature="0"
       id="path30422"
       style="fill:#7b7979;fill-opacity:1;fill-rule:evenodd;stroke:none"
       d="m 457.5775,497.31415 0,18.15625 -5.98925,5.6175 0,-28.925 5.98925,5.15125 0,0" />
    <g
       id="g30424"
       transform="matrix(0.125,0,0,-0.125,419.08088,1490.0167)">
      <g
         clip-path="url(#clipPath30428)"
         id="g30426">
        <path
           inkscape:connector-curvature="0"
           id="path30438"
           style="fill:url(#linearGradient30432);fill-opacity:1;fill-rule:nonzero;stroke:none"
           d="m 547.027,8025.59 -46.465,-45.79 -0.031,0 c -27.488,-1.97 -54.441,-3.41 -81.746,-3.41 -27.379,0 -54.75,2.16 -82.125,3.77 l -46.121,45.43 256.488,0 0,0" />
      </g>
    </g>
    <g
       id="g30440"
       transform="matrix(0.125,0,0,-0.125,419.08088,1490.0167)">
      <g
         clip-path="url(#clipPath30444)"
         id="g30442">
        <path
           inkscape:connector-curvature="0"
           id="path30458"
           style="fill:url(#linearGradient30448);fill-opacity:1;fill-rule:nonzero;stroke:none"
           d="m 336.535,7980.16 -45.996,45.43 -11.555,0 c -10.406,0 -18.925,-8.51 -18.925,-18.93 l 0,-23.83 47.914,-41.25 0,26.78 c 0,6.96 5.699,12.66 12.66,12.66 5.305,-0.25 10.601,-0.54 15.902,-0.86 l 0,0" />
      </g>
    </g>
    <g
       id="g30460"
       transform="matrix(0.125,0,0,-0.125,419.08088,1490.0167)">
      <g
         clip-path="url(#clipPath30464)"
         id="g30462">
        <path
           inkscape:connector-curvature="0"
           id="path30478"
           style="fill:url(#linearGradient30468);fill-opacity:1;fill-rule:nonzero;stroke:none"
           d="m 500.641,7979.8 46.386,45.79 11.551,0 c 10.406,0 18.926,-8.51 18.926,-18.93 l 0,-23.83 -47.914,-41.15 0,26.68 -0.004,0.32 0,0 -0.012,0.32 0,0 -0.019,0.33 -0.004,0 -0.024,0.32 -0.004,0 -0.035,0.31 0,0 -0.043,0.32 0,0 -0.054,0.31 0,0 -0.059,0.31 0,0 -0.07,0.31 0,0 -0.071,0.31 0,0 -0.086,0.29 0,0 -0.085,0.3 0,0 -0.098,0.3 0,0 -0.102,0.29 0,0 -0.113,0.29 0,0 -0.117,0.28 0,0 -0.125,0.28 0,0 -0.129,0.28 0,0 -0.137,0.28 0,0 -0.144,0.27 0,0 -0.149,0.26 0,0 -0.156,0.27 0,0 -0.164,0.26 -0.004,0 -0.16,0.25 -0.004,0 -0.172,0.26 -0.004,0 -0.176,0.24 0,0 -0.187,0.24 0,0 -0.188,0.24 0,0 -0.203,0.23 0,0 -0.199,0.23 0,0 -0.211,0.22 0,0 -0.203,0.22 -0.004,0 -0.215,0.21 0,0 -0.226,0.2 0,0 -0.231,0.21 0,0 -0.23,0.2 0,0 -0.239,0.18 0,0 -0.238,0.19 0,0 -0.25,0.18 0,0 -0.246,0.18 0,0 -0.254,0.17 0,0 -0.262,0.16 -0.003,0 -0.258,0.15 0,0 -0.27,0.15 0,0 -0.269,0.14 -0.004,0 -0.274,0.14 0,0 -0.277,0.13 0,0 -0.281,0.13 0,0 -0.285,0.11 0,0 -0.289,0.11 0,0 -0.293,0.11 0,0 -0.293,0.1 0,0 -0.297,0.09 -0.008,0 -0.297,0.08 -0.004,0 -0.297,0.08 -0.004,0 -0.304,0.06 -0.004,0 -0.309,0.06 0,0 -0.312,0.05 0,0 -0.313,0.04 0,0 -0.316,0.04 0,0 -0.324,0.03 0,0 -0.317,0.02 -0.004,0 -0.324,0.02 -0.32,0 0,0 c -0.418,-0.02 -0.836,-0.06 -1.258,-0.1 -5.031,-0.38 -10.043,-0.76 -15.031,-1.12 l 0,0" />
      </g>
    </g>
    <g
       id="g30480"
       transform="matrix(0.125,0,0,-0.125,419.08088,1490.0167)">
      <g
         clip-path="url(#clipPath30484)"
         id="g30482">
        <path
           inkscape:connector-curvature="0"
           id="path30498"
           style="fill:url(#linearGradient30488);fill-opacity:1;fill-rule:nonzero;stroke:none"
           d="m 501.109,7757.71 45.844,-49.57 11.625,0 c 10.406,0 18.926,8.52 18.926,18.93 l 0,24.36 -47.914,45.29 0,-24.66 -0.004,-0.32 0,0 -0.012,-0.33 0,0 -0.019,-0.32 -0.004,0 -0.024,-0.32 -0.004,0 -0.035,-0.32 0,0 -0.043,-0.31 0,0 -0.054,-0.32 0,0 -0.059,-0.3 0,0 -0.07,-0.31 0,0 -0.071,-0.3 0,0 -0.086,-0.3 0,0 -0.085,-0.31 0,0 -0.098,-0.29 0,0 -0.102,-0.29 0,0 -0.113,-0.29 0,0 -0.113,-0.28 -0.004,0 -0.125,-0.28 0,0 -0.129,-0.28 0,0 -0.137,-0.28 0,0 -0.144,-0.27 -0.004,0 -0.145,-0.26 0,0 -0.156,-0.27 0,0 -0.164,-0.26 0,0 -0.168,-0.25 0,0 -0.176,-0.25 0,0 -0.176,-0.25 0,0 -0.187,-0.24 0,0 -0.188,-0.24 0,0 -0.203,-0.23 0,0 -0.199,-0.23 0,0 -0.211,-0.22 0,0 c -0.066,-0.07 -0.137,-0.14 -0.207,-0.22 l 0,0 -0.215,-0.21 0,0 -0.226,-0.21 0,0 -0.231,-0.2 0,0 -0.23,-0.2 0,0 -0.239,-0.19 0,0 -0.238,-0.18 -0.004,0 -0.246,-0.18 0,0 -0.246,-0.18 0,0 -0.254,-0.16 0,0 -0.262,-0.17 -0.003,0 -0.258,-0.16 -0.008,0 -0.262,-0.14 0,0 -0.269,-0.15 -0.004,0 -0.274,-0.13 0,0 -0.277,-0.13 0,0 -0.281,-0.13 0,0 -0.285,-0.11 0,0 -0.289,-0.11 0,0 -0.293,-0.11 0,0 -0.293,-0.1 -0.004,0 -0.301,-0.09 0,0 -0.297,-0.08 0,0 -0.305,-0.07 0,0 -0.304,-0.07 -0.004,0 -0.309,-0.06 0,0 -0.312,-0.05 0,0 -0.317,-0.05 0,0 -0.312,-0.03 0,0 -0.324,-0.03 0,0 -0.321,-0.02 0,0 -0.324,-0.01 0,0 -0.32,-0.01 c -5.266,-0.58 -10.563,-1.15 -15.821,-1.69 l 0,0" />
      </g>
    </g>
    <g
       id="g30500"
       transform="matrix(0.125,0,0,-0.125,419.08088,1490.0167)">
      <g
         clip-path="url(#clipPath30504)"
         id="g30502">
        <path
           inkscape:connector-curvature="0"
           id="path30518"
           style="fill:url(#linearGradient30508);fill-opacity:1;fill-rule:nonzero;stroke:none"
           d="m 336.883,7758.01 -46.274,-49.87 -11.621,0 c -10.41,0 -18.929,8.52 -18.929,18.94 l 0,24.35 47.914,44.94 0,-24.31 c 0,-6.96 5.699,-12.66 12.668,-12.66 5.386,-0.43 10.804,-0.9 16.242,-1.39 l 0,0" />
      </g>
    </g>
    <g
       id="g30520"
       transform="matrix(0.125,0,0,-0.125,419.08088,1490.0167)">
      <g
         clip-path="url(#clipPath30524)"
         id="g30522">
        <path
           inkscape:connector-curvature="0"
           id="path30538"
           style="fill:url(#linearGradient30528);fill-opacity:1;fill-rule:nonzero;stroke:none"
           d="m 320.641,7981.02 c 32.714,-1.55 65.429,-4.63 98.144,-4.63 32.715,0 64.91,2.06 98.145,4.63 6.961,0 12.66,-5.7 12.66,-12.66 0,-65.43 0,-130.86 0,-196.3 0,-6.96 -5.699,-12.66 -12.66,-12.66 -32.715,-3.6 -65.43,-6.68 -98.145,-6.68 -32.715,0 -65.949,4.11 -98.144,6.68 -6.969,0 -12.668,5.7 -12.668,12.66 0,65.44 0,130.87 0,196.3 0,6.96 5.699,12.66 12.668,12.66 l 0,0" />
      </g>
    </g>
    <path
       inkscape:connector-curvature="0"
       id="path45028"
       style="fill:#ffffff;fill-opacity:1;fill-rule:nonzero;stroke:none"
       d="m 459.98075,502.0779 0,-7.1575 4.24275,0 0,0.84375 -3.46787,0 0,2.1925 3.24812,0 0,0.84 -3.24812,0 0,2.43625 3.6055,0 0,0.845 -4.38038,0 0,0 z m 5.07175,-1.5475 0.713,-0.13625 c 0.0419,0.365 0.15863,0.63625 0.34663,0.8125 0.1885,0.1775 0.44,0.2675 0.752,0.2675 0.313,0 0.55462,-0.08 0.725,-0.2325 0.1715,-0.155 0.25637,-0.3525 0.25637,-0.5875 0,-0.2075 -0.0733,-0.365 -0.21975,-0.48 -0.1,-0.0775 -0.34462,-0.17625 -0.73187,-0.29125 -0.55963,-0.175 -0.93513,-0.32125 -1.123,-0.44125 -0.1885,-0.12 -0.335,-0.2825 -0.44,-0.48375 -0.103,-0.20125 -0.15525,-0.4325 -0.15525,-0.68875 0,-0.4425 0.14162,-0.8025 0.42375,-1.08 0.28275,-0.275 0.67637,-0.41375 1.17825,-0.41375 0.3145,0 0.59137,0.0575 0.83112,0.17125 0.24063,0.11375 0.42188,0.2675 0.55025,0.45875 0.1265,0.1925 0.21488,0.4675 0.26313,0.82375 l -0.70313,0.11875 c -0.0649,-0.56625 -0.3735,-0.85 -0.92325,-0.85 -0.312,0 -0.545,0.0637 -0.69825,0.18875 -0.15187,0.125 -0.2285,0.285 -0.2285,0.48 0,0.19375 0.0732,0.34375 0.21875,0.455 0.0879,0.065 0.34763,0.1675 0.78125,0.3125 0.59713,0.1925 0.98138,0.34375 1.15863,0.45625 0.17487,0.11375 0.3115,0.265 0.41012,0.46 0.0962,0.1925 0.1465,0.4225 0.1465,0.69 0,0.49375 -0.15912,0.895 -0.47212,1.20125 -0.315,0.305 -0.74313,0.45875 -1.28663,0.45875 -1.02,0 -1.60987,-0.55625 -1.773,-1.67 l 0,0 z m 7.16313,-0.35125 0.7085,0.1125 c -0.0815,0.61875 -0.28513,1.09 -0.61325,1.415 -0.32663,0.32625 -0.72025,0.4875 -1.17875,0.4875 -0.55663,0 -1.01413,-0.22625 -1.3745,-0.685 -0.35988,-0.4575 -0.54,-1.1325 -0.54,-2.03 0,-0.9 0.18112,-1.57625 0.54487,-2.0275 0.36325,-0.45 0.82963,-0.67625 1.3985,-0.67625 0.43988,0 0.81,0.1375 1.11125,0.40875 0.30175,0.27625 0.49325,0.685 0.57863,1.2325 l -0.69825,0.13125 c -0.0684,-0.35125 -0.1865,-0.615 -0.35688,-0.7875 -0.1685,-0.175 -0.37162,-0.2625 -0.60987,-0.2625 -0.355,0 -0.6485,0.15625 -0.88188,0.47125 -0.23137,0.31375 -0.34862,0.8125 -0.34862,1.49625 0,0.70625 0.11237,1.2175 0.335,1.535 0.22162,0.315 0.50875,0.47375 0.85737,0.47375 0.273,0 0.50638,-0.10625 0.69975,-0.31625 0.19338,-0.21 0.31688,-0.53625 0.36813,-0.97875 l 0,0" />
  </g>
</svg>
